<?xml version="1.0" encoding="UTF-8" standalone="no"?>
<svg width="9px" height="18px" viewBox="0 0 9 18" version="1.1" xmlns="http://www.w3.org/2000/svg" xmlns:xlink="http://www.w3.org/1999/xlink" xmlns:sketch="http://www.bohemiancoding.com/sketch/ns">
    <!-- Generator: Sketch Beta 3.3 (11970) - http://www.bohemiancoding.com/sketch -->
    <title>Shape</title>
    <desc>Created with Sketch Beta.</desc>
    <defs></defs>
    <g id="Page-1" stroke="none" stroke-width="1" fill="none" fill-rule="evenodd" sketch:type="MSPage">
        <g id="Homepage" sketch:type="MSArtboardGroup" transform="translate(-249.000000, -4378.000000)" fill="#FFFFFF">
            <g id="Footer" sketch:type="MSLayerGroup" transform="translate(0.000000, 4323.000000)">
                <g id="SM-Copy" transform="translate(249.000000, 55.000000)" sketch:type="MSShapeGroup">
                    <path d="M3.4125,1.15115653 C4.08191667,0.497649733 5.03408333,0.276923519 5.93229167,0.24941284 C6.88225,0.240655558 7.83183333,0.245952646 8.78179167,0.246337112 C8.78554167,1.27375847 8.785875,2.3015643 8.78141667,3.32894294 C8.1675,3.32783226 7.55316667,3.3304808 6.93925,3.32783226 C6.54995833,3.30297012 6.15020833,3.60550216 6.07945833,4.00116041 C6.070125,4.68862837 6.07608333,5.3764808 6.07645833,6.06399148 C6.976875,6.06779342 7.87729167,6.06283808 8.77766667,6.06629828 C8.71175,7.06082643 8.59141667,8.05082643 8.45025,9.03698177 C7.65491667,9.04462837 6.859125,9.03621284 6.06383333,9.0412109 C6.05675,11.974473 6.06754167,14.9077352 6.05825,17.8409973 C4.87691667,17.8459526 3.694875,17.8386905 2.51358333,17.8444148 C2.49120833,14.9107682 2.51541667,11.9756264 2.50129167,9.04159536 C1.92495833,9.03544391 1.34829167,9.04582449 0.772,9.03664002 C0.774208333,8.05048468 0.77275,7.06437206 0.773083333,6.07855847 C1.349,6.07133905 1.92533333,6.08009633 2.50129167,6.07437206 C2.51879167,5.11568468 2.48375,4.15588663 2.51954167,3.1980109 C2.57729167,2.43941672 2.85929167,1.675141 3.4125,1.15115653 L3.4125,1.15115653 Z" id="Shape"></path>
                </g>
            </g>
        </g>
    </g>
</svg>