<?xml version="1.0" encoding="UTF-8" standalone="no"?>
<svg width="19px" height="16px" viewBox="0 0 19 16" version="1.1" xmlns="http://www.w3.org/2000/svg" xmlns:xlink="http://www.w3.org/1999/xlink" xmlns:sketch="http://www.bohemiancoding.com/sketch/ns">
    <!-- Generator: Sketch Beta 3.3 (11970) - http://www.bohemiancoding.com/sketch -->
    <title>Fill 1</title>
    <desc>Created with Sketch Beta.</desc>
    <defs></defs>
    <g id="Page-1" stroke="none" stroke-width="1" fill="none" fill-rule="evenodd" sketch:type="MSPage">
        <g id="Homepage" sketch:type="MSArtboardGroup" transform="translate(-278.000000, -4381.000000)" fill="#FFFFFF">
            <g id="Footer" sketch:type="MSLayerGroup" transform="translate(0.000000, 4323.000000)">
                <g id="SM-Copy" transform="translate(249.000000, 55.000000)" sketch:type="MSShapeGroup">
                    <path d="M34.9746749,18.2292681 C32.8891927,18.2292681 30.9480317,17.6179436 29.313751,16.5701657 C29.6026569,16.6042708 29.8966326,16.6217184 30.1946903,16.6217184 C31.924834,16.6217184 33.5171747,16.0313311 34.7810395,15.0408998 C33.1650623,15.0110743 31.8012524,13.9434127 31.3313522,12.476234 C31.5567884,12.5193592 31.7881502,12.542469 32.026096,12.542469 C32.3629335,12.542469 32.6891707,12.4973686 32.9990796,12.4129617 C31.309625,12.073754 30.0367401,10.581161 30.0367401,8.79189292 C30.0367401,8.77635468 30.0367401,8.76088227 30.0370035,8.74547571 C30.5349515,9.02206959 31.1043359,9.18818393 31.7097347,9.20734337 C30.7188426,8.54512457 30.066829,7.41478329 30.066829,6.13360256 C30.066829,5.45683311 30.2489425,4.82246463 30.566818,4.277046 C32.388216,6.51126085 35.1093178,7.98146825 38.1785156,8.13546803 C38.1155726,7.86519479 38.0828501,7.58333372 38.0828501,7.29390104 C38.0828501,5.25450677 39.736356,3.60106663 41.775882,3.60106663 C42.838013,3.60106663 43.7977628,4.04956877 44.4714378,4.7672907 C45.3126098,4.60163724 46.1029532,4.29429608 46.8164614,3.87114234 C46.5407234,4.73344894 45.9552082,5.45716231 45.1927151,5.91422365 C45.9397358,5.8249446 46.6514663,5.62643698 47.313751,5.3327247 C46.8186341,6.07329312 46.1924956,6.72372656 45.4710208,7.24438935 C45.4781315,7.40273457 45.4816869,7.56200155 45.4816869,7.72212446 C45.4816869,12.6021201 41.767257,18.2292681 34.9746749,18.2292681" id="Fill-1"></path>
                </g>
            </g>
        </g>
    </g>
</svg>