<?xml version="1.0" encoding="utf-8"?>
<!-- Generator: Adobe Illustrator 18.1.1, SVG Export Plug-In . SVG Version: 6.00 Build 0)  -->
<!DOCTYPE svg PUBLIC "-//W3C//DTD SVG 1.1//EN" "http://www.w3.org/Graphics/SVG/1.1/DTD/svg11.dtd">
<svg version="1.1" id="Layer_1" xmlns="http://www.w3.org/2000/svg" xmlns:xlink="http://www.w3.org/1999/xlink" x="0px" y="0px"
	 viewBox="0 0 91.5 91.5" enable-background="new 0 0 91.5 91.5" xml:space="preserve">
<path fill-rule="evenodd" clip-rule="evenodd" fill="#1ABC9C" d="M89.9,41.7L49.8,1.7c-2.2-2.2-5.8-2.2-8,0L1.7,41.7
	c-2.2,2.2-2.2,5.8,0,8l40.1,40.1c2.2,2.2,5.8,2.2,8,0l40.1-40.1C92.1,47.6,92.1,44,89.9,41.7z M24.2,48.3c-1.4,1.4-3.6,1.4-5,0
	c-1.4-1.4-1.4-3.6,0-5c1.4-1.4,3.6-1.4,5,0C25.6,44.6,25.6,46.9,24.2,48.3z M36.2,60.3c-1.4,1.4-3.6,1.4-5,0c-1.4-1.4-1.4-3.6,0-5
	c1.4-1.4,3.6-1.4,5,0C37.6,56.7,37.6,58.9,36.2,60.3z M36.2,36.2c-1.4,1.4-3.6,1.4-5,0s-1.4-3.6,0-5s3.6-1.4,5,0
	C37.6,32.6,37.6,34.9,36.2,36.2z M48.3,72.3c-1.4,1.4-3.6,1.4-5,0c-1.4-1.4-1.4-3.6,0-5c1.4-1.4,3.6-1.4,5,0
	C49.6,68.7,49.6,70.9,48.3,72.3z M48.3,48.3c-1.4,1.4-3.6,1.4-5,0c-1.4-1.4-1.4-3.6,0-5c1.4-1.4,3.6-1.4,5,0
	C49.6,44.6,49.6,46.9,48.3,48.3z M48.3,24.2c-1.4,1.4-3.6,1.4-5,0c-1.4-1.4-1.4-3.6,0-5c1.4-1.4,3.6-1.4,5,0
	C49.6,20.6,49.6,22.8,48.3,24.2z M60.3,60.3c-1.4,1.4-3.6,1.4-5,0c-1.4-1.4-1.4-3.6,0-5c1.4-1.4,3.6-1.4,5,0
	C61.7,56.7,61.7,58.9,60.3,60.3z M60.3,36.2c-1.4,1.4-3.6,1.4-5,0c-1.4-1.4-1.4-3.6,0-5c1.4-1.4,3.6-1.4,5,0
	C61.7,32.6,61.7,34.9,60.3,36.2z M72.3,48.3c-1.4,1.4-3.6,1.4-5,0c-1.4-1.4-1.4-3.6,0-5c1.4-1.4,3.6-1.4,5,0
	C73.7,44.6,73.7,46.9,72.3,48.3z"/>
<g>
</g>
<g>
</g>
<g>
</g>
<g>
</g>
<g>
</g>
<g>
</g>
<g>
</g>
<g>
</g>
<g>
</g>
<g>
</g>
<g>
</g>
<g>
</g>
<g>
</g>
<g>
</g>
<g>
</g>
</svg>
