<?xml version="1.0" encoding="utf-8"?>
<!-- Generator: Adobe Illustrator 18.1.0, SVG Export Plug-In . SVG Version: 6.00 Build 0)  -->
<!DOCTYPE svg PUBLIC "-//W3C//DTD SVG 1.1//EN" "http://www.w3.org/Graphics/SVG/1.1/DTD/svg11.dtd">
<svg version="1.1" id="Layer_1" xmlns="http://www.w3.org/2000/svg" xmlns:xlink="http://www.w3.org/1999/xlink" x="0px" y="0px"
	 viewBox="0 0 147.7 58.5" enable-background="new 0 0 147.7 58.5" xml:space="preserve">
<g>
	<path fill="#121719" d="M39.1,35.6c0,7.3-1.6,12.9-4.7,16.9c-3.1,4-7.9,6-14.2,6c-5.1,0-9.4-1.3-12.9-4S1.4,47.8,0,42.4l5.2-2
		c1.3,4.8,3.1,8.1,5.6,10c2.5,1.9,5.6,2.9,9.3,2.9c2.7,0,4.9-0.5,6.6-1.6c1.7-1.1,3-2.5,3.9-4.2c0.9-1.7,1.5-3.6,1.8-5.7
		c0.3-2.1,0.5-4.2,0.5-6.3V0h6.1V35.6z"/>
	<path fill="#121719" d="M97,57.5h-6.5l-5.4-16.4H62.4L57,57.5h-6.5L69.7,0h8.2L97,57.5z M83.4,35.7L73.7,6.1l-9.7,29.7H83.4z"/>
	<path fill="#121719" d="M147.7,57.5h-6.1V9.6l-10.2,29.7h-4.3L117,9.6v47.9h-6V0h7.8l10.5,30.1L139.9,0h7.8V57.5z"/>
</g>
</svg>
