<?xml version="1.0" encoding="utf-8"?>
<!-- Generator: Adobe Illustrator 18.0.0, SVG Export Plug-In . SVG Version: 6.00 Build 0)  -->
<!DOCTYPE svg PUBLIC "-//W3C//DTD SVG 1.1//EN" "http://www.w3.org/Graphics/SVG/1.1/DTD/svg11.dtd">
<svg version="1.1" id="Layer_1" xmlns="http://www.w3.org/2000/svg" xmlns:xlink="http://www.w3.org/1999/xlink" x="0px" y="0px"
	 viewBox="0 0 620 270" enable-background="new 0 0 620 270" xml:space="preserve">
<g>
	<rect fill="#FF6961" width="270" height="270"/>
	<g>
		<rect x="130" y="130" fill="#FFFFFF" width="10" height="10"/>
		<rect x="166.7" y="93.3" fill="#FFFFFF" width="10" height="10"/>
		<circle fill="#FFFFFF" cx="135" cy="178.3" r="4"/>
		<circle fill="#FFFFFF" cx="135" cy="91.7" r="4"/>
		<line fill="none" stroke="#FFFFFF" stroke-width="2" stroke-miterlimit="10" x1="135" y1="180" x2="135" y2="90"/>
		<path fill="none" stroke="#FFFFFF" stroke-width="4" stroke-miterlimit="10" d="M135,135c0,0,6.7-36.7,36.7-36.7"/>
		<rect x="93.3" y="166.7" fill="#FFFFFF" width="10" height="10"/>
		<path fill="none" stroke="#FFFFFF" stroke-width="4" stroke-miterlimit="10" d="M135,135c0,0-6.7,36.7-36.7,36.7"/>
		<path fill="#FFFFFF" d="M56.1,79.3c-1.8,2.8-2.6,6.5-2.6,11.1v27.6c0,3.8-0.7,6.6-2.2,8.3c-1.5,1.8-3.6,2.6-6.3,2.6v12.4
			c2.7,0,4.9,0.8,6.3,2.4c1.5,1.6,2.2,4.6,2.2,9v27.1c0,10.1,3.9,15.2,11.7,15.2H79v-13.1h-5.2c-2.1,0-3.6-0.6-4.4-1.9
			c-0.8-1.2-1.2-3.2-1.2-5.9v-26c0-3.6-0.7-6.5-2.2-8.8c-1.5-2.2-3.2-3.5-5.2-3.9v-1.3c2-0.4,3.7-1.6,5.2-3.5
			c1.5-1.9,2.2-4.8,2.2-8.6V95.9c0-2.7,0.4-4.7,1.3-5.9c0.9-1.2,2.3-1.8,4.3-1.8H79V75H65.2C60.9,75,57.9,76.4,56.1,79.3z"/>
		<path fill="#FFFFFF" d="M218.7,126.2c-1.5-1.8-2.2-4.5-2.2-8.3V90.3c0-4.6-0.9-8.2-2.6-11.1c-1.8-2.8-4.8-4.3-9.1-4.3H191v13.1
			h5.3c2,0,3.4,0.6,4.3,1.8c0.9,1.2,1.3,3.2,1.3,5.9V122c0,3.8,0.7,6.6,2.2,8.6c1.5,1.9,3.2,3.1,5.2,3.5v1.3c-2,0.3-3.7,1.6-5.2,3.9
			c-1.5,2.2-2.2,5.2-2.2,8.8v26c0,2.7-0.4,4.6-1.2,5.9c-0.8,1.2-2.3,1.9-4.4,1.9H191V195h13.8c7.8,0,11.7-5.1,11.7-15.2v-27.1
			c0-4.4,0.7-7.4,2.2-9c1.5-1.6,3.6-2.4,6.3-2.4v-12.4C222.3,128.9,220.1,128,218.7,126.2z"/>
	</g>
</g>
<g>
	<path fill="#B4C2C7" d="M336.1,184.5V83.7h11.3v100.8H336.1z"/>
	<path fill="#B4C2C7" d="M368.2,93.5c0-4.2,3.5-7.7,7.6-7.7c4.2,0,7.7,3.5,7.7,7.7c0,4.2-3.5,7.6-7.7,7.6
		C371.6,101.1,368.2,97.8,368.2,93.5z M370.1,184.5v-73h11.3v73H370.1z"/>
	<path fill="#B4C2C7" d="M406.4,169.2v-47.7h-12.1v-10h12.1V91.6h11.3v19.9h14.8v10h-14.8v45.3c0,5.4,2.4,9.4,7.4,9.4
		c3.2,0,6.2-1.4,7.7-3l3.3,8.5c-2.9,2.7-7,4.7-13.6,4.7C411.8,186.3,406.4,180.1,406.4,169.2z"/>
	<path fill="#B4C2C7" d="M444.3,147.9c0-21.6,14.7-38.2,36.4-38.2c13.3,0,21.2,5.4,26.7,12.7l-7.6,6.9c-4.8-6.6-11-9.5-18.6-9.5
		c-15.6,0-25.2,11.9-25.2,28.1c0,16.2,9.7,28.3,25.2,28.3c7.6,0,13.7-3,18.6-9.5l7.6,6.9c-5.6,7.3-13.4,12.7-26.7,12.7
		C459,186.3,444.3,169.7,444.3,147.9z"/>
	<path fill="#B4C2C7" d="M572.7,184.5v-48c0-12.8-6.6-16.6-16.5-16.6c-8.8,0-17.2,5.4-21.6,11.3v53.3h-11.3V83.7h11.3v38.4
		c5.1-6,15.1-12.4,26.1-12.4c15.3,0,23.3,7.4,23.3,23.3v51.5H572.7z"/>
	<path fill="#B4C2C7" d="M604.7,93.5c0-4.2,3.5-7.7,7.6-7.7c4.2,0,7.7,3.5,7.7,7.7c0,4.2-3.5,7.6-7.7,7.6
		C608.2,101.1,604.7,97.8,604.7,93.5z M606.7,184.5v-73H618v73H606.7z"/>
</g>
</svg>
