<?xml version="1.0" encoding="utf-8"?>
<!-- Generator: Adobe Illustrator 18.1.1, SVG Export Plug-In . SVG Version: 6.00 Build 0)  -->
<!DOCTYPE svg PUBLIC "-//W3C//DTD SVG 1.1//EN" "http://www.w3.org/Graphics/SVG/1.1/DTD/svg11.dtd">
<svg version="1.1" id="Layer_1" xmlns="http://www.w3.org/2000/svg" xmlns:xlink="http://www.w3.org/1999/xlink" x="0px" y="0px"
	 viewBox="275.3 0.2 1184.8 441.7" enable-background="new 275.3 0.2 1184.8 441.7" xml:space="preserve">
<g>
	<path fill="#6F6F6F" d="M938.3,113c0-10.1-4.6-16.1-16.1-16.1c-11.5,0-16.1,5.5-16.1,16.1v182.4c0,15.2-8.3,17-21.6,17h-17.5
		c-18.8,0-22.5-5.1-22.5-23.4v-41.3c0-10.1-4.6-16.1-16.1-16.1c-11,0.5-15.6,6.4-15.6,16.5V294c0,12.9,1.8,21.6,9.6,32.2
		c11.5,15.2,26.6,18.4,44.6,18.4h18.4c19.8,0,35.8-5.5,46.4-23.4c6-11,6-18.4,6-30.3V113H938.3z"/>
	<path fill="#6F6F6F" d="M1198.2,328.9l-61.1-214c-2.3-8.3-6-16.1-16.5-16.1c-10.1,0-13.8,7.8-16.1,16.1l-62,214
		c-2.3,7.8,6.4,15.6,15.2,15.6c9.6,0,14.7-8.3,17-15.6l11.9-38.1h67.5l11.5,38.1c2.3,7.8,7.3,15.6,17,15.6
		C1191.8,344.5,1200.5,336.7,1198.2,328.9z M1095.8,259.5l24.8-85.9h0.5l24.3,85.9H1095.8z"/>
	<path fill="#6F6F6F" d="M1380.6,153.4l-38.6-56h-40v231.5c0,10.1,4.6,16.1,16.1,16.1s16.1-5.5,16.1-16.1V141.5h0.5l30.3,45v5.1
		c0,9.6,4.6,19.3,16.1,19.3c11.9,0,16.1-9.2,16.1-19.3v-5.1l30.3-45h0.5v187.4c0,10.1,4.6,16.1,16.1,16.1c11.5,0,16.1-5.5,16.1-16.1
		V97.4h-40.9L1380.6,153.4L1380.6,153.4z"/>
</g>
<g>
	
		<rect x="340" y="64.8" transform="matrix(-0.7071 -0.7071 0.7071 -0.7071 690.6802 728.1228)" fill="#FFA35E" width="312.3" height="312.3"/>
	<circle fill="#FFFFFF" cx="441" cy="165.8" r="16.1"/>
	<circle fill="#FFFFFF" cx="496.2" cy="220.9" r="16.1"/>
	<circle fill="#FFFFFF" cx="551.3" cy="276.1" r="16.1"/>
	<circle fill="#FFFFFF" cx="551.3" cy="165.8" r="16.1"/>
	<circle fill="#FFFFFF" cx="441" cy="276.1" r="16.1"/>
	<circle fill="#FFFFFF" cx="606.4" cy="220.9" r="16.1"/>
	<circle fill="#FFFFFF" cx="496.2" cy="331.6" r="16.1"/>
	<circle fill="#FFFFFF" cx="496.2" cy="110.7" r="16.1"/>
	<circle fill="#FFFFFF" cx="385.5" cy="220.9" r="16.1"/>
</g>
</svg>
