<?xml version="1.0" encoding="utf-8"?>
<!-- Generator: Adobe Illustrator 18.1.0, SVG Export Plug-In . SVG Version: 6.00 Build 0)  -->
<!DOCTYPE svg PUBLIC "-//W3C//DTD SVG 1.1//EN" "http://www.w3.org/Graphics/SVG/1.1/DTD/svg11.dtd">
<svg version="1.1" id="Layer_1" xmlns="http://www.w3.org/2000/svg" xmlns:xlink="http://www.w3.org/1999/xlink" x="0px" y="0px"
	 viewBox="0 0 140.7 167.2" enable-background="new 0 0 140.7 167.2" xml:space="preserve">
<path fill-rule="evenodd" clip-rule="evenodd" fill="#6F6F6F" d="M117.8,114"/>
<g>
	<g>
		<path fill-rule="evenodd" clip-rule="evenodd" fill="#6F6F6F" d="M27.3,116.8c0-2.2-1-3.5-3.5-3.5c-2.5,0-3.5,1.2-3.5,3.5v39.7
			c0,3.3-1.8,3.7-4.7,3.7h-3.8c-4.1,0-4.9-1.1-4.9-5.1v-9c0-2.2-1-3.5-3.5-3.5C1,142.7,0,144,0,146.2v10c0,2.8,0.4,4.7,2.1,7
			c2.5,3.3,5.8,4,9.7,4h4c4.3,0,7.8-1.2,10.1-5.1c1.3-2.4,1.3-4,1.3-6.6V116.8L27.3,116.8z"/>
		<path fill-rule="evenodd" clip-rule="evenodd" fill="#6F6F6F" d="M83.9,163.8l-13.3-46.6c-0.5-1.8-1.3-3.5-3.6-3.5
			c-2.2,0-3,1.7-3.5,3.5L50,163.8c-0.5,1.7,1.4,3.4,3.3,3.4c2.1,0,3.2-1.8,3.7-3.4l2.6-8.3h14.7l2.5,8.3c0.5,1.7,1.6,3.4,3.7,3.4
			C82.5,167.2,84.4,165.5,83.9,163.8z M61.6,148.7L67,130h0.1l5.3,18.7H61.6z"/>
		<path fill-rule="evenodd" clip-rule="evenodd" fill="#6F6F6F" d="M123.6,125.6l-8.4-12.2h-8.7v50.4c0,2.2,1,3.5,3.5,3.5
			s3.5-1.2,3.5-3.5v-40.8h0.1l6.6,9.8v1.1c0,2.1,1,4.2,3.5,4.2c2.6,0,3.5-2,3.5-4.2v-1.1l6.6-9.8h0.1v40.8c0,2.2,1,3.5,3.5,3.5
			c2.5,0,3.5-1.2,3.5-3.5v-50.4H132L123.6,125.6L123.6,125.6z"/>
	</g>
	<g>
		
			<rect x="32.9" y="14.1" transform="matrix(0.7071 0.7071 -0.7071 0.7071 53.6035 -33.1993)" fill-rule="evenodd" clip-rule="evenodd" fill="#FFA35E" width="68" height="68"/>
		<circle fill-rule="evenodd" clip-rule="evenodd" fill="#FFFFFF" cx="54.9" cy="36.1" r="3.5"/>
		<circle fill-rule="evenodd" clip-rule="evenodd" fill="#FFFFFF" cx="66.9" cy="48.1" r="3.5"/>
		<circle fill-rule="evenodd" clip-rule="evenodd" fill="#FFFFFF" cx="78.9" cy="60.1" r="3.5"/>
		<circle fill-rule="evenodd" clip-rule="evenodd" fill="#FFFFFF" cx="78.9" cy="36.1" r="3.5"/>
		<circle fill-rule="evenodd" clip-rule="evenodd" fill="#FFFFFF" cx="54.9" cy="60.1" r="3.5"/>
		<circle fill-rule="evenodd" clip-rule="evenodd" fill="#FFFFFF" cx="90.9" cy="48.1" r="3.5"/>
		<circle fill-rule="evenodd" clip-rule="evenodd" fill="#FFFFFF" cx="66.9" cy="72.2" r="3.5"/>
		<circle fill-rule="evenodd" clip-rule="evenodd" fill="#FFFFFF" cx="66.9" cy="24.1" r="3.5"/>
		<circle fill-rule="evenodd" clip-rule="evenodd" fill="#FFFFFF" cx="42.8" cy="48.1" r="3.5"/>
	</g>
</g>
</svg>
