<?xml version="1.0" encoding="UTF-8" standalone="no"?>
<svg width="51px" height="56px" viewBox="0 0 51 56" version="1.1" xmlns="http://www.w3.org/2000/svg" xmlns:xlink="http://www.w3.org/1999/xlink" xmlns:sketch="http://www.bohemiancoding.com/sketch/ns">
    <!-- Generator: Sketch Beta 3.3 (11970) - http://www.bohemiancoding.com/sketch -->
    <title>Group Copy 2 + Group Copy</title>
    <desc>Created with Sketch Beta.</desc>
    <defs></defs>
    <g id="Page-1" stroke="none" stroke-width="1" fill="none" fill-rule="evenodd" sketch:type="MSPage">
        <g id="Desktop-HD" sketch:type="MSArtboardGroup" transform="translate(-695.000000, -36.000000)">
            <g id="Group-Copy-2-+-Group-Copy" sketch:type="MSLayerGroup" transform="translate(694.000000, 36.000000)">
                <g id="Group-Copy-2" transform="translate(1.000000, 6.000000)" sketch:type="MSShapeGroup">
                    <g id="Group">
                        <path d="M25.5702513,0.0178380308 L50.7147342,24.9510493 L25.5702513,49.8842605 L0.425768364,24.9510493 L25.5702513,0.0178380308 L25.5702513,0.0178380308 Z" id="Rectangle-path" fill="#0DCF84"></path>
                        <ellipse id="Oval" fill="#FFFFFF" cx="19.0668141" cy="18.7195614" rx="1.8085054" ry="1.81491592"></ellipse>
                        <ellipse id="Oval" fill="#FFFFFF" cx="25.267404" cy="24.9421302" rx="1.8085054" ry="1.81491592"></ellipse>
                        <ellipse id="Oval" fill="#FFFFFF" cx="31.4679939" cy="31.1646991" rx="1.8085054" ry="1.81491592"></ellipse>
                        <ellipse id="Oval" fill="#FFFFFF" cx="31.4679939" cy="18.7195614" rx="1.8085054" ry="1.81491592"></ellipse>
                        <ellipse id="Oval" fill="#FFFFFF" cx="19.0668141" cy="31.1646991" rx="1.8085054" ry="1.81491592"></ellipse>
                        <ellipse id="Oval" fill="#FFFFFF" cx="37.6685839" cy="24.9421302" rx="1.8085054" ry="1.81491592"></ellipse>
                        <ellipse id="Oval" fill="#FFFFFF" cx="25.267404" cy="37.4391227" rx="1.8085054" ry="1.81491592"></ellipse>
                        <ellipse id="Oval" fill="#FFFFFF" cx="25.267404" cy="12.4969925" rx="1.8085054" ry="1.81491592"></ellipse>
                        <ellipse id="Oval" fill="#FFFFFF" cx="12.8145525" cy="24.9421302" rx="1.8085054" ry="1.81491592"></ellipse>
                    </g>
                </g>
                <g id="Group-Copy" sketch:type="MSShapeGroup">
                    <g id="Group" transform="translate(1.000000, 0.000000)">
                        <path d="M25.5702513,0.0178380308 L50.7147342,24.9510493 L25.5702513,49.8842605 L0.425768364,24.9510493 L25.5702513,0.0178380308 L25.5702513,0.0178380308 Z" id="Rectangle-path" fill="#04F799"></path>
                        <ellipse id="Oval" fill="#FFFFFF" cx="19.0668141" cy="18.7195614" rx="1.8085054" ry="1.81491592"></ellipse>
                        <ellipse id="Oval" fill="#FFFFFF" cx="25.267404" cy="24.9421302" rx="1.8085054" ry="1.81491592"></ellipse>
                        <ellipse id="Oval" fill="#FFFFFF" cx="31.4679939" cy="31.1646991" rx="1.8085054" ry="1.81491592"></ellipse>
                        <ellipse id="Oval" fill="#FFFFFF" cx="31.4679939" cy="18.7195614" rx="1.8085054" ry="1.81491592"></ellipse>
                        <ellipse id="Oval" fill="#FFFFFF" cx="19.0668141" cy="31.1646991" rx="1.8085054" ry="1.81491592"></ellipse>
                        <ellipse id="Oval" fill="#FFFFFF" cx="37.6685839" cy="24.9421302" rx="1.8085054" ry="1.81491592"></ellipse>
                        <ellipse id="Oval" fill="#FFFFFF" cx="25.267404" cy="37.4391227" rx="1.8085054" ry="1.81491592"></ellipse>
                        <ellipse id="Oval" fill="#FFFFFF" cx="25.267404" cy="12.4969925" rx="1.8085054" ry="1.81491592"></ellipse>
                        <ellipse id="Oval" fill="#FFFFFF" cx="12.8145525" cy="24.9421302" rx="1.8085054" ry="1.81491592"></ellipse>
                    </g>
                </g>
            </g>
        </g>
    </g>
</svg>