<?xml version="1.0" encoding="utf-8"?>
<!-- Generator: Adobe Illustrator 18.0.0, SVG Export Plug-In . SVG Version: 6.00 Build 0)  -->
<!DOCTYPE svg PUBLIC "-//W3C//DTD SVG 1.1//EN" "http://www.w3.org/Graphics/SVG/1.1/DTD/svg11.dtd">
<svg version="1.1" id="Layer_1" xmlns="http://www.w3.org/2000/svg" xmlns:xlink="http://www.w3.org/1999/xlink" x="0px" y="0px"
	 viewBox="0 0 620 270" enable-background="new 0 0 620 270" xml:space="preserve">
<g>
	<path fill="#B4C2C7" d="M336.1,184.5V83.7h11.3v100.8H336.1z"/>
	<path fill="#B4C2C7" d="M368.2,93.5c0-4.2,3.5-7.7,7.6-7.7c4.2,0,7.7,3.5,7.7,7.7c0,4.2-3.5,7.6-7.7,7.6
		C371.6,101.1,368.2,97.8,368.2,93.5z M370.1,184.5v-73h11.3v73H370.1z"/>
	<path fill="#B4C2C7" d="M406.4,169.2v-47.7h-12.1v-10h12.1V91.6h11.3v19.9h14.8v10h-14.8v45.3c0,5.4,2.4,9.4,7.4,9.4
		c3.2,0,6.2-1.4,7.7-3l3.3,8.5c-2.9,2.7-7,4.7-13.6,4.7C411.8,186.3,406.4,180.1,406.4,169.2z"/>
	<path fill="#B4C2C7" d="M444.3,147.9c0-21.6,14.7-38.2,36.4-38.2c13.3,0,21.2,5.4,26.7,12.7l-7.6,6.9c-4.8-6.6-11-9.5-18.6-9.5
		c-15.6,0-25.2,11.9-25.2,28.1c0,16.2,9.7,28.3,25.2,28.3c7.6,0,13.7-3,18.6-9.5l7.6,6.9c-5.6,7.3-13.4,12.7-26.7,12.7
		C459,186.3,444.3,169.7,444.3,147.9z"/>
	<path fill="#B4C2C7" d="M572.7,184.5v-48c0-12.8-6.6-16.6-16.5-16.6c-8.8,0-17.2,5.4-21.6,11.3v53.3h-11.3V83.7h11.3v38.4
		c5.1-6,15.1-12.4,26.1-12.4c15.3,0,23.3,7.4,23.3,23.3v51.5H572.7z"/>
	<path fill="#B4C2C7" d="M604.7,93.5c0-4.2,3.5-7.7,7.6-7.7c4.2,0,7.7,3.5,7.7,7.7c0,4.2-3.5,7.6-7.7,7.6
		C608.2,101.1,604.7,97.8,604.7,93.5z M606.7,184.5v-73H618v73H606.7z"/>
</g>
<path fill="#FF6961" d="M0,0v270h270V0H0z M79,88h-5.3c-2,0-3.5,0.7-4.4,1.9c-0.9,1.2-1.4,3.3-1.4,6V122c0,3.8-0.6,6.6-2,8.6
	c-1.5,1.9-3,3.1-5,3.5v1.3c2,0.3,3.5,1.6,5,3.9c1.5,2.2,2,5.2,2,8.8v26c0,2.7,0.5,4.7,1.3,5.9c0.8,1.2,2.4,1.9,4.5,1.9H79v13H65.2
	c-7.8,0-11.2-5.1-11.2-15.2v-27.1c0-4.4-1-7.4-2.4-9c-1.5-1.6-3.8-2.4-6.6-2.4v-12.4c2.7,0,5.1-0.9,6.6-2.6c1.5-1.8,2.4-4.5,2.4-8.3
	V90.3c0-4.6,0.6-8.2,2.4-11.1c1.8-2.8,4.5-4.3,8.8-4.3H79V88z M177,103h-10v-2.2c-18,3-25.5,20.3-28.4,29.2h1.4v10h-4v34.5
	c1.7,0.4,3,2,3,3.9c0,2.2-1.8,4-4,4s-4-1.8-4-4c0-1.9,1.3-3.4,3-3.9v-29.6c-3.9,10.4-13,25.8-31,28.4v3.7H93v-10h10v2.2
	c10-1.5,17.1-7.1,22.8-16.8c2.7-4.5,4.6-9,5.7-12.4H130v-10h4V95.5c-1.7-0.4-3-2-3-3.9c0-2.2,1.8-4,4-4s4,1.8,4,4
	c0,1.9-1.3,3.4-3,3.9v29.7c3.9-10.4,13-25.9,31-28.5V93h10V103z M225,141.3c-2.7,0-5.1,0.8-6.6,2.4c-1.5,1.6-2.4,4.6-2.4,9v27.1
	c0,10.1-3.4,15.2-11.2,15.2H191v-13h5.1c2.1,0,3.7-0.7,4.5-1.9c0.8-1.2,1.3-3.3,1.3-5.9v-26c0-3.6,0.6-6.5,2-8.8
	c1.5-2.2,3-3.5,5-3.9v-1.3c-2-0.4-3.5-1.6-5-3.5c-1.5-1.9-2-4.8-2-8.6V95.9c0-2.7-0.5-4.8-1.4-6c-0.9-1.2-2.4-1.9-4.4-1.9H191V75
	h13.8c4.3,0,7.1,1.4,8.8,4.3c1.8,2.8,2.4,6.5,2.4,11.1v27.6c0,3.8,1,6.6,2.4,8.3c1.5,1.8,3.8,2.6,6.6,2.6V141.3z"/>
</svg>
