<?xml version="1.0" encoding="utf-8"?>
<!-- Generator: Adobe Illustrator 18.0.0, SVG Export Plug-In . SVG Version: 6.00 Build 0)  -->
<!DOCTYPE svg PUBLIC "-//W3C//DTD SVG 1.1//EN" "http://www.w3.org/Graphics/SVG/1.1/DTD/svg11.dtd">
<svg version="1.1" id="Layer_1" xmlns="http://www.w3.org/2000/svg" xmlns:xlink="http://www.w3.org/1999/xlink" x="0px" y="0px"
	 viewBox="0 0 270 270" enable-background="new 0 0 270 270" xml:space="preserve">
<path fill="#FF6961" d="M0,0v270h270V0H0z M79,88h-5.3c-2,0-3.5,0.7-4.4,1.9c-0.9,1.2-1.4,3.3-1.4,6V122c0,3.8-0.6,6.6-2,8.6
	c-1.5,1.9-3,3.1-5,3.5v1.3c2,0.3,3.5,1.6,5,3.9c1.5,2.2,2,5.2,2,8.8v26c0,2.7,0.5,4.7,1.3,5.9c0.8,1.2,2.4,1.9,4.5,1.9H79v13H65.2
	c-7.8,0-11.2-5.1-11.2-15.2v-27.1c0-4.4-1-7.4-2.4-9c-1.5-1.6-3.8-2.4-6.6-2.4v-12.4c2.7,0,5.1-0.9,6.6-2.6c1.5-1.8,2.4-4.5,2.4-8.3
	V90.3c0-4.6,0.6-8.2,2.4-11.1c1.8-2.8,4.5-4.3,8.8-4.3H79V88z M177,103h-10v-2.2c-18,3-25.5,20.3-28.4,29.2h1.4v10h-4v34.5
	c1.7,0.4,3,2,3,3.9c0,2.2-1.8,4-4,4s-4-1.8-4-4c0-1.9,1.3-3.4,3-3.9v-29.6c-3.9,10.4-13,25.8-31,28.4v3.7H93v-10h10v2.2
	c10-1.5,17.1-7.1,22.8-16.8c2.7-4.5,4.6-9,5.7-12.4H130v-10h4V95.5c-1.7-0.4-3-2-3-3.9c0-2.2,1.8-4,4-4s4,1.8,4,4
	c0,1.9-1.3,3.4-3,3.9v29.7c3.9-10.4,13-25.9,31-28.5V93h10V103z M225,141.3c-2.7,0-5.1,0.8-6.6,2.4c-1.5,1.6-2.4,4.6-2.4,9v27.1
	c0,10.1-3.4,15.2-11.2,15.2H191v-13h5.1c2.1,0,3.7-0.7,4.5-1.9c0.8-1.2,1.3-3.3,1.3-5.9v-26c0-3.6,0.6-6.5,2-8.8
	c1.5-2.2,3-3.5,5-3.9v-1.3c-2-0.4-3.5-1.6-5-3.5c-1.5-1.9-2-4.8-2-8.6V95.9c0-2.7-0.5-4.8-1.4-6c-0.9-1.2-2.4-1.9-4.4-1.9H191V75
	h13.8c4.3,0,7.1,1.4,8.8,4.3c1.8,2.8,2.4,6.5,2.4,11.1v27.6c0,3.8,1,6.6,2.4,8.3c1.5,1.8,3.8,2.6,6.6,2.6V141.3z"/>
</svg>
